<svg xmlns="http://www.w3.org/2000/svg" viewBox="0 0 17 17" xmlns:xlink="http://www.w3.org/1999/xlink">
  <use fill="#FFF" xlink:href="#a"/>
  <defs>
    <path id="a" d="M15.86 4.34c-.76-1.33-1.8-2.4-3.1-3.17C11.47.4 10.05 0 8.5 0 6.96 0 5.54.4 4.23 1.17 2.93 1.95 1.9 3 1.13 4.34.4 5.67 0 7.14 0 8.7c0 1.9.54 3.62 1.62 5.13 1.08 1.52 2.48 2.57 4.2 3.15.2.04.34 0 .43-.08.1-.1.15-.2.15-.34v-1.6l-.26.04c-.16.03-.36.05-.6.04-.25 0-.5-.03-.78-.08-.26-.05-.5-.16-.74-.34-.23-.18-.4-.4-.5-.7l-.1-.26c-.07-.17-.2-.36-.35-.58-.16-.2-.32-.35-.48-.43l-.1-.05-.13-.13c-.04-.05-.08-.1-.1-.16-.02-.04 0-.1.06-.12.06-.04.17-.05.32-.05l.22.03c.15.03.33.12.55.27.22.16.4.35.54.6.17.3.38.54.62.7.24.17.48.25.72.25s.46-.02.63-.06c.18-.03.35-.1.5-.17.07-.5.25-.9.54-1.17-.42-.04-.8-.1-1.13-.2-.34-.1-.68-.24-1.04-.44s-.65-.46-.9-.76c-.23-.3-.42-.7-.57-1.2-.15-.48-.23-1.05-.23-1.7 0-.9.3-1.7.88-2.33-.27-.7-.25-1.46.08-2.3.2-.08.53-.03.95.14.43.16.74.3.93.43l.47.3c.7-.2 1.4-.3 2.13-.3s1.44.1 2.12.3l.42-.27c.3-.18.63-.35 1.02-.5.38-.15.68-.2.9-.12.32.85.35 1.63.08 2.3.58.66.87 1.43.87 2.35 0 .63-.07 1.2-.22 1.7s-.34.9-.58 1.2c-.24.3-.54.55-.9.75-.35.2-.7.35-1.04.44-.32.08-.7.15-1.12.2.38.33.57.87.57 1.6v2.4c0 .13.04.24.14.33.08.1.23.12.43.08 1.7-.57 3.1-1.62 4.2-3.14 1.05-1.52 1.6-3.23 1.6-5.13 0-1.58-.4-3.04-1.15-4.37z"/>
  </defs>
</svg>
