<svg width="58" height="58" viewBox="0 0 58 58" fill="none" xmlns="http://www.w3.org/2000/svg">
<path d="M0 22.4C0 14.5593 0 10.6389 1.52591 7.64413C2.86814 5.00986 5.00986 2.86814 7.64413 1.52591C10.6389 0 14.5593 0 22.4 0H35.6C43.4407 0 47.3611 0 50.3559 1.52591C52.9901 2.86814 55.1319 5.00986 56.4741 7.64413C58 10.6389 58 14.5593 58 22.4V35.6C58 43.4407 58 47.3611 56.4741 50.3559C55.1319 52.9901 52.9901 55.1319 50.3559 56.4741C47.3611 58 43.4407 58 35.6 58H22.4C14.5593 58 10.6389 58 7.64413 56.4741C5.00986 55.1319 2.86814 52.9901 1.52591 50.3559C0 47.3611 0 43.4407 0 35.6V22.4Z" fill="black"/>
<ellipse opacity="0.202376" cx="29" cy="40.0161" rx="12" ry="2" fill="url(#paint0_linear_107_2)"/>
<g filter="url(#filter0_d_107_2)">
<mask id="mask0_107_2" style="mask-type:luminance" maskUnits="userSpaceOnUse" x="17" y="17" width="28" height="24">
<path d="M45 17L38.6735 17.1339C25.1115 18.5032 17.816 26.6706 17 41H45V17Z" fill="white"/>
</mask>
<g mask="url(#mask0_107_2)">
<path opacity="0.4" d="M41.8003 20.5421L42.1913 19.2678L40.8581 19.2623C27.2273 19.2065 19.118 26.5665 16.8086 40.7322L17.7681 40.9381C18.8536 36.2831 22.3355 33.9368 26.363 33.6871L26.6465 33.6731C31.5118 33.4923 35.4993 32.1628 38.5774 29.6708L39.3466 29.0481L37.6745 26.9829L37.848 26.8572C39.6069 25.5295 40.9197 23.4119 41.8003 20.5421Z" fill="white"/>
<path opacity="0.204298" d="M43.7215 22.8796L44.2436 21.6532L42.9182 21.5084C29.3679 20.028 20.5338 26.5001 16.7563 40.3468L17.6835 40.7564C19.2497 36.2404 22.9632 34.1663 26.9948 34.339L27.2782 34.3546C32.1357 34.6834 36.2403 33.778 39.5621 31.6214L40.3921 31.0825L38.9451 28.8539L39.1308 28.747C41.0188 27.6104 42.5458 25.6416 43.7215 22.8796Z" fill="white"/>
</g>
<path d="M39.7443 18.3082L40 17L38.6735 17.1339C25.1115 18.5032 17.816 26.6706 17 41H17.9703C18.5633 36.257 21.7862 33.6642 25.7657 32.9948L26.0461 32.9512C30.8658 32.2628 34.6925 30.5239 37.4933 27.7238L38.1932 27.0241L36.3144 25.145L36.4738 25.0018C38.0842 23.4975 39.1685 21.2543 39.7443 18.3082Z" fill="url(#paint1_linear_107_2)"/>
<path d="M39.2539 18.2119C38.6915 21.0894 37.6445 23.2206 36.1396 24.6299L35.9805 24.7734L35.5879 25.126L35.9609 25.498L37.4854 27.0234L37.1396 27.3701C34.4322 30.0769 30.7142 31.7792 25.9756 32.4561L25.9697 32.457L25.6885 32.501L25.6826 32.502C23.6117 32.8503 21.7129 33.7032 20.251 35.1094C18.8728 36.435 17.9052 38.2314 17.5371 40.5H17.5332C18.0046 33.666 19.9932 28.3399 23.4277 24.542C26.9467 20.6508 32.0346 18.3072 38.7236 17.6318L39.3799 17.5645L39.2539 18.2119Z" stroke="white"/>
<mask id="mask1_107_2" style="mask-type:luminance" maskUnits="userSpaceOnUse" x="17" y="17" width="23" height="24">
<path d="M39.2539 18.2119C38.6915 21.0894 37.6445 23.2206 36.1396 24.6299L35.9805 24.7734L35.5879 25.126L35.9609 25.498L37.4854 27.0234L37.1396 27.3701C34.4322 30.0769 30.7142 31.7792 25.9756 32.4561L25.9697 32.457L25.6885 32.501L25.6826 32.502C23.6117 32.8503 21.7129 33.7032 20.251 35.1094C18.8728 36.435 17.9052 38.2314 17.5371 40.5H17.5332C18.0046 33.666 19.9932 28.3399 23.4277 24.542C26.9467 20.6508 32.0346 18.3072 38.7236 17.6318L39.3799 17.5645L39.2539 18.2119Z" fill="white" stroke="white"/>
</mask>
<g mask="url(#mask1_107_2)">
</g>
</g>
<defs>
<filter id="filter0_d_107_2" x="16" y="10" width="35.2436" height="32" filterUnits="userSpaceOnUse" color-interpolation-filters="sRGB">
<feFlood flood-opacity="0" result="BackgroundImageFix"/>
<feColorMatrix in="SourceAlpha" type="matrix" values="0 0 0 0 0 0 0 0 0 0 0 0 0 0 0 0 0 0 127 0" result="hardAlpha"/>
<feOffset dx="3" dy="-3"/>
<feGaussianBlur stdDeviation="2"/>
<feColorMatrix type="matrix" values="0 0 0 0 0 0 0 0 0 0.366252 0 0 0 0 0.779259 0 0 0 0.186673 0"/>
<feBlend mode="normal" in2="BackgroundImageFix" result="effect1_dropShadow_107_2"/>
<feBlend mode="normal" in="SourceGraphic" in2="effect1_dropShadow_107_2" result="shape"/>
</filter>
<linearGradient id="paint0_linear_107_2" x1="41" y1="38.0437" x2="17.3313" y2="38.0437" gradientUnits="userSpaceOnUse">
<stop stop-color="white" stop-opacity="0.01"/>
<stop offset="1" stop-color="white"/>
</linearGradient>
<linearGradient id="paint1_linear_107_2" x1="31.8608" y1="25.6127" x2="25.0824" y2="18.8873" gradientUnits="userSpaceOnUse">
<stop stop-color="white"/>
<stop offset="1" stop-color="#CCCCCC"/>
</linearGradient>
</defs>
</svg>
