<svg width="600" height="600" viewBox="0 0 600 600" fill="none" xmlns="http://www.w3.org/2000/svg">
<rect width="600" height="600" rx="55" fill="white"/>
<path d="M183.284 258.818V381H150.352V258.818H183.284ZM200.063 381V289.364H232.995V381H200.063ZM216.529 279.818C212.075 279.818 208.256 278.347 205.075 275.403C201.893 272.46 200.302 268.92 200.302 264.784C200.302 260.648 201.893 257.108 205.075 254.165C208.256 251.222 212.075 249.75 216.529 249.75C221.023 249.75 224.842 251.222 227.984 254.165C231.165 257.108 232.756 260.648 232.756 264.784C232.756 268.92 231.165 272.46 227.984 275.403C224.842 278.347 221.023 279.818 216.529 279.818ZM282.706 329.455V381H249.774V289.364H281.036V306.784H281.99C283.979 300.977 287.479 296.423 292.49 293.122C297.541 289.821 303.428 288.17 310.149 288.17C316.632 288.17 322.26 289.662 327.033 292.645C331.845 295.588 335.564 299.645 338.189 304.815C340.854 309.986 342.166 315.892 342.126 322.534V381H309.195V329.455C309.234 324.92 308.081 321.361 305.734 318.776C303.428 316.19 300.206 314.898 296.07 314.898C293.365 314.898 290.999 315.494 288.97 316.688C286.982 317.841 285.45 319.511 284.376 321.699C283.303 323.847 282.746 326.432 282.706 329.455ZM402.293 382.67C392.509 382.67 384.077 380.801 376.997 377.062C369.957 373.284 364.528 367.875 360.71 360.835C356.932 353.756 355.043 345.284 355.043 335.42C355.043 325.955 356.952 317.682 360.77 310.602C364.588 303.523 369.977 298.014 376.938 294.077C383.898 290.139 392.111 288.17 401.577 288.17C408.497 288.17 414.761 289.244 420.369 291.392C425.977 293.54 430.77 296.662 434.747 300.759C438.724 304.815 441.787 309.747 443.935 315.554C446.082 321.361 447.156 327.903 447.156 335.182V342.818H365.304V324.682H416.849C416.81 322.057 416.134 319.75 414.821 317.761C413.548 315.733 411.818 314.162 409.631 313.048C407.483 311.895 405.037 311.318 402.293 311.318C399.628 311.318 397.182 311.895 394.955 313.048C392.727 314.162 390.938 315.713 389.585 317.702C388.273 319.69 387.577 322.017 387.497 324.682V344.25C387.497 347.193 388.114 349.818 389.347 352.125C390.58 354.432 392.349 356.241 394.656 357.554C396.963 358.866 399.747 359.523 403.009 359.523C405.276 359.523 407.344 359.205 409.213 358.568C411.122 357.932 412.753 357.017 414.105 355.824C415.457 354.591 416.452 353.119 417.088 351.409H447.156C446.122 357.773 443.676 363.301 439.818 367.994C435.96 372.648 430.849 376.267 424.486 378.852C418.162 381.398 410.764 382.67 402.293 382.67Z" fill="#2E2E2E"/>
<rect x="142" y="194" width="128" height="24" fill="#0369A1"/>
</svg>
